Coordinates
version=1
nRows=25
nColumns=34
inDegrees=no

Units are S.I. units (second, meters, Newtons, ...)
If the header above contains a line with 'inDegrees', this indicates whether rotational values are in degrees (yes) or radians (no).

endheader
time	pelvis_tilt	pelvis_list	pelvis_rotation	pelvis_tx	pelvis_ty	pelvis_tz	hip_flexion_r	hip_adduction_r	hip_rotation_r	knee_angle_r	ankle_angle_r	subtalar_angle_r	mtp_angle_r	hip_flexion_l	hip_adduction_l	hip_rotation_l	knee_angle_l	ankle_angle_l	subtalar_angle_l	mtp_angle_l	lumbar_extension	lumbar_bending	lumbar_rotation	arm_flex_r	arm_add_r	arm_rot_r	elbow_flex_r	pro_sup_r	arm_flex_l	arm_add_l	arm_rot_l	elbow_flex_l	pro_sup_l
2.49	-0.373363	0.0264825	0.108584	-0.116448	1.28566	-0.597563	0.401627	-0.223885	-0.580854	0.0324888	-0.868174	0.000819656	-0.0993494	0.411514	-0.129145	-0.342717	0.04594	-0.871768	0.113108	-0.0993494	0.247297	-0.0486845	-0.00172857	5.18331	-0.565844	4.47016	0.710485	1.38567	5.17297	-1.04537	4.6626	0.575296	2.01398
2.5	-0.369826	0.0259494	0.110446	-0.116305	1.2739	-0.59769	0.397663	-0.225311	-0.5771	0.038005	-0.864756	-0.00606611	-0.0993494	0.409196	-0.131074	-0.337803	0.053679	-0.867632	0.110003	-0.0993494	0.245401	-0.0488576	-0.0105674	5.20598	-0.547304	4.4897	0.699955	1.38595	5.15907	-1.00061	4.66611	0.58645	1.99787
2.51	-0.366232	0.0253572	0.112449	-0.116133	1.26111	-0.597803	0.393637	-0.226661	-0.572801	0.0439985	-0.860989	-0.0124944	-0.0993494	0.407	-0.133031	-0.332578	0.0621947	-0.861772	0.108124	-0.0993494	0.244139	-0.0487659	-0.0181755	5.22435	-0.527866	4.50752	0.689147	1.38362	5.14159	-0.961143	4.66717	0.594138	1.97886
2.52	-0.362634	0.0247199	0.114531	-0.115944	1.24731	-0.597897	0.389613	-0.227887	-0.567595	0.0501965	-0.857425	-0.0178158	-0.0993494	0.404965	-0.13495	-0.327029	0.0711181	-0.854396	0.10759	-0.0993494	0.243422	-0.0484249	-0.0247968	5.23896	-0.508023	4.524	0.67814	1.37862	5.12611	-0.926395	4.67097	0.598764	1.95723
2.53	-0.35904	0.0240782	0.116651	-0.115755	1.23249	-0.597974	0.38561	-0.229006	-0.561341	0.0563834	-0.854745	-0.0217609	-0.0993494	0.403103	-0.13674	-0.321279	0.080086	-0.846041	0.108042	-0.0993494	0.243065	-0.0479064	-0.0306773	5.25043	-0.488173	4.53954	0.667022	1.37133	5.11551	-0.895467	4.67999	0.600853	1.93358
2.54	-0.355395	0.0234955	0.118798	-0.115591	1.21666	-0.598044	0.381612	-0.230124	-0.554139	0.0625114	-0.853554	-0.0245031	-0.0993494	0.401408	-0.138303	-0.315532	0.0888356	-0.83751	0.108681	-0.0993494	0.242775	-0.0473151	-0.0360537	5.25939	-0.46862	4.55456	0.655897	1.36263	5.11055	-0.867362	4.69461	0.600955	1.909
2.55	-0.351581	0.0230498	0.120995	-0.115482	1.19981	-0.598125	0.377587	-0.231436	-0.546274	0.0688208	-0.854031	-0.0266156	-0.0993494	0.399872	-0.139556	-0.309992	0.0973181	-0.829623	0.108436	-0.0993494	0.242155	-0.0467506	-0.041139	5.26647	-0.449568	4.56943	0.644898	1.35381	5.11072	-0.841161	4.71385	0.599527	1.88507
2.56	-0.347433	0.0228154	0.123283	-0.115466	1.18192	-0.598235	0.373533	-0.233201	-0.538107	0.0759487	-0.855481	-0.028912	-0.0993494	0.398515	-0.140467	-0.30479	0.105818	-0.822761	0.106259	-0.0993494	0.240736	-0.0462695	-0.0460914	5.27222	-0.431121	4.58443	0.634194	1.3463	5.11486	-0.816149	4.73614	0.596857	1.86346
2.57	-0.342793	0.022838	0.125706	-0.115589	1.16299	-0.598395	0.369544	-0.235712	-0.529919	0.0850044	-0.855897	-0.0321976	-0.0993494	0.397437	-0.141094	-0.299916	0.115059	-0.816329	0.10144	-0.0993494	0.238038	-0.045855	-0.0509687	5.27709	-0.413271	4.59985	0.623972	1.34113	5.12177	-0.791909	4.7599	0.593063	1.84514
2.58	-0.337566	0.0231086	0.128275	-0.115904	1.14299	-0.598622	0.365892	-0.239239	-0.521754	0.0975822	-0.851664	-0.0370129	-0.0993494	0.396877	-0.14161	-0.295162	0.126258	-0.808289	0.0938465	-0.0993494	0.233667	-0.0454017	-0.0556859	5.28146	-0.3959	4.61603	0.614379	1.33876	5.13051	-0.768353	4.78392	0.588102	1.83011
2.59	-0.331812	0.0235409	0.130949	-0.116471	1.12189	-0.598922	0.363121	-0.243975	-0.513282	0.11569	-0.837548	-0.0434585	-0.0993494	0.397291	-0.142304	-0.29007	0.141111	-0.794925	0.0840028	-0.0993494	0.227424	-0.0447151	-0.0600098	5.28564	-0.378816	4.63343	0.605451	1.33918	5.14066	-0.745667	4.8074	0.581798	1.81747
2.6	-0.325815	0.023963	0.133623	-0.117362	1.09969	-0.599293	0.362123	-0.249984	-0.50377	0.141568	-0.807133	-0.0511574	-0.0993494	0.399415	-0.143556	-0.283936	0.16168	-0.770987	0.0729852	-0.0993494	0.219403	-0.0435309	-0.0635997	5.28994	-0.361825	4.65261	0.597066	1.342	5.15225	-0.724203	4.82989	0.57387	1.80592
2.61	-0.320142	0.0241249	0.13613	-0.118659	1.0764	-0.599721	0.364186	-0.257168	-0.49216	0.1774	-0.753769	-0.059378	-0.0993494	0.404315	-0.145787	-0.275905	0.190173	-0.730288	0.0621721	-0.0993494	0.210064	-0.0415549	-0.0660752	5.29474	-0.344813	4.67417	0.588918	1.34664	5.16574	-0.704324	4.85104	0.563982	1.7946
2.62	-0.315659	0.0237259	0.138266	-0.120461	1.05209	-0.600179	0.370977	-0.265247	-0.477263	0.224904	-0.672055	-0.0673165	-0.0993494	0.413378	-0.149381	-0.265148	0.228607	-0.666771	0.0528995	-0.0993494	0.200233	-0.0385191	-0.0670927	5.30061	-0.327797	4.69866	0.580533	1.35243	5.1818	-0.686277	4.87046	0.551818	1.78341
2.63	-0.313475	0.0224574	0.139827	-0.122878	1.02686	-0.60063	0.384444	-0.273772	-0.458041	0.284881	-0.559693	-0.0745021	-0.0993494	0.428245	-0.154597	-0.25109	0.278389	-0.576018	0.0460842	-0.0993494	0.191029	-0.0342418	-0.0664104	5.30829	-0.310933	4.72645	0.571344	1.3587	5.20121	-0.67012	4.8877	0.537204	1.77287
2.64	-0.314831	0.0200591	0.140646	-0.126031	1.00089	-0.601027	0.406616	-0.282155	-0.433908	0.356843	-0.419157	-0.0811753	-0.0993494	0.450655	-0.16148	-0.2336	0.339875	-0.456971	0.041893	-0.0993494	0.18369	-0.0286822	-0.0639322	5.31879	-0.294463	4.75758	0.560824	1.36493	5.2247	-0.655688	4.90231	0.520237	1.76343
2.65	-0.320912	0.0163864	0.140634	-0.130036	0.974455	-0.601315	0.439341	-0.289774	-0.404989	0.438978	-0.258196	-0.0883798	-0.0993494	0.482226	-0.169798	-0.213083	0.412107	-0.313267	0.0395932	-0.0993494	0.179347	-0.0219854	-0.0597174	5.33328	-0.278631	4.79176	0.548656	1.37085	5.25286	-0.642617	4.91383	0.501332	1.75555
2.66	-0.332631	0.0114808	0.139788	-0.134991	0.947869	-0.601444	0.483985	-0.296123	-0.372147	0.528574	-0.0885349	-0.0976663	-0.0993494	0.524189	-0.179033	-0.190444	0.49295	-0.153342	0.0377077	-0.0993494	0.178753	-0.0145124	-0.0539589	5.35301	-0.263613	4.82833	0.534865	1.37649	5.28606	-0.630388	4.92192	0.481245	1.74967
2.67	-0.350378	0.00561057	0.13819	-0.140948	0.921524	-0.601369	0.541111	-0.300927	-0.336714	0.622701	0.0766974	-0.110596	-0.0993494	0.577114	-0.188473	-0.166866	0.57964	0.0110713	0.0344534	-0.0993494	0.182015	-0.00682543	-0.0469369	5.37914	-0.249485	4.86649	0.519868	1.38214	5.32442	-0.618395	4.92642	0.461048	1.74629
2.68	-0.373803	-0.000764862	0.135972	-0.147888	0.89584	-0.601059	0.61018	-0.304132	-0.300042	0.718744	0.225581	-0.128352	-0.0993494	0.640655	-0.197385	-0.143482	0.669467	0.167435	0.0282595	-0.0993494	0.188399	0.000416066	-0.0389564	5.41265	-0.236259	4.9054	0.504409	1.3883	5.36774	-0.60604	4.92752	0.442029	1.74587
2.69	-0.401708	-0.00710207	0.133255	-0.155703	0.871232	-0.6005	0.689348	-0.305777	-0.263212	0.814547	0.349316	-0.151502	-0.0993494	0.713398	-0.205219	-0.121087	0.760235	0.304854	0.0181587	-0.0993494	0.196289	0.00662981	-0.0302785	5.45413	-0.223957	4.9445	0.489397	1.39561	5.41553	-0.592843	4.92591	0.425506	1.74877
2.7	-0.432177	-0.0129064	0.13009	-0.1642	0.84808	-0.599697	0.775465	-0.305868	-0.227038	0.908209	0.443322	-0.179782	-0.0993494	0.792864	-0.211761	-0.100043	0.850291	0.41585	0.00397977	-0.0993494	0.203434	0.0114789	-0.0210691	5.50375	-0.212697	4.98374	0.475716	1.40472	5.46707	-0.57854	4.92287	0.412587	1.75506
2.71	-0.462973	-0.0178349	0.126419	-0.173128	0.826683	-0.598671	0.864429	-0.304349	-0.1923	0.997784	0.50752	-0.211872	-0.0993494	0.875771	-0.21719	-0.0804615	0.9382	0.497267	-0.0135854	-0.0993494	0.207482	0.0149517	-0.011397	5.56123	-0.202758	5.0238	0.46402	1.41606	5.5214	-0.563146	4.92019	0.403952	1.76428
2.72	-0.492117	-0.0217341	0.122086	-0.182224	0.807231	-0.597456	0.951925	-0.301192	-0.159885	1.08119	0.54572	-0.245387	-0.0993494	0.95853	-0.22201	-0.0625013	1.02237	0.550233	-0.0330191	-0.0993494	0.206664	0.0173136	-0.00131003	5.62595	-0.194588	5.06615	0.454572	1.42969	5.57739	-0.546958	4.9199	0.39973	1.77539
2.73	-0.518369	-0.0246215	0.116927	-0.191263	0.789781	-0.596103	1.03429	-0.296521	-0.130707	1.15644	0.564243	-0.277275	-0.0993494	1.0379	-0.22688	-0.0465098	1.10093	0.579281	-0.0522152	-0.0993494	0.200329	0.0189729	0.0090216	5.6971	-0.188746	5.11301	0.447159	1.44501	5.63372	-0.530505	4.92378	0.399516	1.78676
